<svg width="148" height="33" viewBox="0 0 148 33" fill="none" xmlns="http://www.w3.org/2000/svg">
<path d="M10.4075 4.49225C3.38376 2.50044 0.589275 4.99297 0.0651152 6.30337C-0.0205115 6.10359 0.0460846 5.80231 0.0650068 5.5618C0.169 4.23999 1.97126 2.46196 8.17982 0.954168C17.3526 -1.27351 28.36 0.692088 31.1118 3.83705C33.3133 6.35301 27.9232 12.311 24.9529 14.9754C20.3665 9.99592 19.1872 6.98201 10.4075 4.49225Z" fill="url(#paint0_linear_3317_106016)"/>
<path d="M5.15985 22.2116C0.70157 16.1681 -0.128538 9.10257 0.0149279 5.83738C0.0303178 5.48712 0.139256 5.14547 0.356798 4.87053C3.18326 1.2982 9.81777 3.68555 12.9729 5.24212C12.5306 5.30782 12.0263 5.41228 10.6635 11.0732C8.95998 18.1494 11.0566 23.2599 12.367 26.929C14.0705 30.4671 16.0305 31.4064 17.2973 31.7122C15.2006 32.2363 11.0566 30.205 5.15985 22.2116Z" fill="url(#paint1_linear_3317_106016)"/>
<path d="M29.1474 18.2438C26.0976 25.6974 20.0099 30.3325 17.2973 31.7117C12.3289 31.7472 10.843 24.7613 10.4935 21.0771C10.4697 21.0502 10.468 21.0129 10.4833 20.9664C10.4866 21.0029 10.49 21.0398 10.4935 21.0771C10.6674 21.2739 12.0238 20.9147 16.5869 19.577C23.708 17.4893 26.5766 13.5337 29.1474 10.1966C31.1159 7.29009 31.5822 4.82022 30.9254 3.66912C32.4873 5.16666 32.9597 8.92678 29.1474 18.2438Z" fill="url(#paint2_linear_3317_106016)"/>
<path d="M40.84 16.6C40.84 14.952 41.208 13.48 41.944 12.184C42.696 10.872 43.712 9.856 44.992 9.136C46.288 8.4 47.736 8.032 49.336 8.032C51.208 8.032 52.848 8.512 54.256 9.472C55.664 10.432 56.648 11.76 57.208 13.456H53.344C52.96 12.656 52.416 12.056 51.712 11.656C51.024 11.256 50.224 11.056 49.312 11.056C48.336 11.056 47.464 11.288 46.696 11.752C45.944 12.2 45.352 12.84 44.92 13.672C44.504 14.504 44.296 15.48 44.296 16.6C44.296 17.704 44.504 18.68 44.92 19.528C45.352 20.36 45.944 21.008 46.696 21.472C47.464 21.92 48.336 22.144 49.312 22.144C50.224 22.144 51.024 21.944 51.712 21.544C52.416 21.128 52.96 20.52 53.344 19.72H57.208C56.648 21.432 55.664 22.768 54.256 23.728C52.864 24.672 51.224 25.144 49.336 25.144C47.736 25.144 46.288 24.784 44.992 24.064C43.712 23.328 42.696 22.312 41.944 21.016C41.208 19.72 40.84 18.248 40.84 16.6ZM58.7339 18.304C58.7339 16.96 58.9979 15.768 59.5259 14.728C60.0699 13.688 60.7979 12.888 61.7099 12.328C62.6379 11.768 63.6699 11.488 64.8059 11.488C65.7979 11.488 66.6619 11.688 67.3979 12.088C68.1499 12.488 68.7499 12.992 69.1979 13.6V11.704H72.5819V25H69.1979V23.056C68.7659 23.68 68.1659 24.2 67.3979 24.616C66.6459 25.016 65.7739 25.216 64.7819 25.216C63.6619 25.216 62.6379 24.928 61.7099 24.352C60.7979 23.776 60.0699 22.968 59.5259 21.928C58.9979 20.872 58.7339 19.664 58.7339 18.304ZM69.1979 18.352C69.1979 17.536 69.0379 16.84 68.7179 16.264C68.3979 15.672 67.9659 15.224 67.4219 14.92C66.8779 14.6 66.2939 14.44 65.6699 14.44C65.0459 14.44 64.4699 14.592 63.9419 14.896C63.4139 15.2 62.9819 15.648 62.6459 16.24C62.3259 16.816 62.1659 17.504 62.1659 18.304C62.1659 19.104 62.3259 19.808 62.6459 20.416C62.9819 21.008 63.4139 21.464 63.9419 21.784C64.4859 22.104 65.0619 22.264 65.6699 22.264C66.2939 22.264 66.8779 22.112 67.4219 21.808C67.9659 21.488 68.3979 21.04 68.7179 20.464C69.0379 19.872 69.1979 19.168 69.1979 18.352ZM78.7435 13.624C79.1755 13.016 79.7675 12.512 80.5195 12.112C81.2875 11.696 82.1595 11.488 83.1355 11.488C84.2715 11.488 85.2955 11.768 86.2075 12.328C87.1355 12.888 87.8635 13.688 88.3915 14.728C88.9355 15.752 89.2075 16.944 89.2075 18.304C89.2075 19.664 88.9355 20.872 88.3915 21.928C87.8635 22.968 87.1355 23.776 86.2075 24.352C85.2955 24.928 84.2715 25.216 83.1355 25.216C82.1595 25.216 81.2955 25.016 80.5435 24.616C79.8075 24.216 79.2075 23.712 78.7435 23.104V31.336H75.3835V11.704H78.7435V13.624ZM85.7755 18.304C85.7755 17.504 85.6075 16.816 85.2715 16.24C84.9515 15.648 84.5195 15.2 83.9755 14.896C83.4475 14.592 82.8715 14.44 82.2475 14.44C81.6395 14.44 81.0635 14.6 80.5195 14.92C79.9915 15.224 79.5595 15.672 79.2235 16.264C78.9035 16.856 78.7435 17.552 78.7435 18.352C78.7435 19.152 78.9035 19.848 79.2235 20.44C79.5595 21.032 79.9915 21.488 80.5195 21.808C81.0635 22.112 81.6395 22.264 82.2475 22.264C82.8715 22.264 83.4475 22.104 83.9755 21.784C84.5195 21.464 84.9515 21.008 85.2715 20.416C85.6075 19.824 85.7755 19.12 85.7755 18.304ZM92.8731 10.12C92.2811 10.12 91.7851 9.936 91.3851 9.568C91.0011 9.184 90.8091 8.712 90.8091 8.152C90.8091 7.592 91.0011 7.128 91.3851 6.76C91.7851 6.376 92.2811 6.184 92.8731 6.184C93.4651 6.184 93.9531 6.376 94.3371 6.76C94.7371 7.128 94.9371 7.592 94.9371 8.152C94.9371 8.712 94.7371 9.184 94.3371 9.568C93.9531 9.936 93.4651 10.12 92.8731 10.12ZM94.5291 11.704V25H91.1691V11.704H94.5291ZM101.281 14.464V20.896C101.281 21.344 101.385 21.672 101.593 21.88C101.817 22.072 102.185 22.168 102.697 22.168H104.257V25H102.145C99.3128 25 97.8968 23.624 97.8968 20.872V14.464H96.3128V11.704H97.8968V8.416H101.281V11.704H104.257V14.464H101.281ZM105.329 18.304C105.329 16.96 105.593 15.768 106.121 14.728C106.665 13.688 107.393 12.888 108.305 12.328C109.233 11.768 110.265 11.488 111.401 11.488C112.393 11.488 113.257 11.688 113.993 12.088C114.745 12.488 115.345 12.992 115.793 13.6V11.704H119.177V25H115.793V23.056C115.361 23.68 114.761 24.2 113.993 24.616C113.241 25.016 112.369 25.216 111.377 25.216C110.257 25.216 109.233 24.928 108.305 24.352C107.393 23.776 106.665 22.968 106.121 21.928C105.593 20.872 105.329 19.664 105.329 18.304ZM115.793 18.352C115.793 17.536 115.633 16.84 115.313 16.264C114.993 15.672 114.561 15.224 114.017 14.92C113.473 14.6 112.889 14.44 112.265 14.44C111.641 14.44 111.065 14.592 110.537 14.896C110.009 15.2 109.577 15.648 109.241 16.24C108.921 16.816 108.761 17.504 108.761 18.304C108.761 19.104 108.921 19.808 109.241 20.416C109.577 21.008 110.009 21.464 110.537 21.784C111.081 22.104 111.657 22.264 112.265 22.264C112.889 22.264 113.473 22.112 114.017 21.808C114.561 21.488 114.993 21.04 115.313 20.464C115.633 19.872 115.793 19.168 115.793 18.352ZM125.339 7.24V25H121.979V7.24H125.339ZM135.962 15.736C134.362 14.904 133.562 13.616 133.562 11.872C133.562 11.008 133.778 10.224 134.21 9.52C134.658 8.8 135.322 8.232 136.202 7.816C137.098 7.384 138.186 7.168 139.466 7.168C140.746 7.168 141.826 7.384 142.706 7.816C143.602 8.232 144.266 8.8 144.698 9.52C145.146 10.224 145.37 11.008 145.37 11.872C145.37 12.752 145.154 13.528 144.722 14.2C144.29 14.856 143.714 15.368 142.994 15.736C143.874 16.12 144.562 16.68 145.058 17.416C145.554 18.152 145.802 19.024 145.802 20.032C145.802 21.12 145.522 22.072 144.962 22.888C144.418 23.688 143.666 24.304 142.706 24.736C141.746 25.168 140.666 25.384 139.466 25.384C138.266 25.384 137.186 25.168 136.226 24.736C135.282 24.304 134.53 23.688 133.97 22.888C133.426 22.072 133.154 21.12 133.154 20.032C133.154 19.024 133.402 18.152 133.898 17.416C134.394 16.664 135.082 16.104 135.962 15.736ZM142.106 12.352C142.106 11.568 141.866 10.96 141.386 10.528C140.922 10.096 140.282 9.88 139.466 9.88C138.666 9.88 138.026 10.096 137.546 10.528C137.082 10.96 136.85 11.576 136.85 12.376C136.85 13.096 137.09 13.672 137.57 14.104C138.066 14.536 138.698 14.752 139.466 14.752C140.234 14.752 140.866 14.536 141.362 14.104C141.858 13.656 142.106 13.072 142.106 12.352ZM139.466 17.2C138.554 17.2 137.81 17.432 137.234 17.896C136.674 18.36 136.394 19.024 136.394 19.888C136.394 20.688 136.666 21.344 137.21 21.856C137.77 22.352 138.522 22.6 139.466 22.6C140.41 22.6 141.154 22.344 141.698 21.832C142.242 21.32 142.514 20.672 142.514 19.888C142.514 19.04 142.234 18.384 141.674 17.92C141.114 17.44 140.378 17.2 139.466 17.2Z" fill="#23262F"/>
<defs>
<linearGradient id="paint0_linear_3317_106016" x1="7.10995" y1="-2.03932" x2="24.3515" y2="8.52809" gradientUnits="userSpaceOnUse">
<stop stop-color="#0C98FE"/>
<stop offset="1" stop-color="#0044E3"/>
</linearGradient>
<linearGradient id="paint1_linear_3317_106016" x1="12.9684" y1="5.03982" x2="21.2846" y2="16.7706" gradientUnits="userSpaceOnUse">
<stop stop-color="#0044E3"/>
<stop offset="1" stop-color="#0C98FE"/>
</linearGradient>
<linearGradient id="paint2_linear_3317_106016" x1="10.4474" y1="21.3202" x2="11.9813" y2="7.50543" gradientUnits="userSpaceOnUse">
<stop stop-color="#0044E3"/>
<stop offset="1" stop-color="#0C98FE"/>
</linearGradient>
</defs>
</svg>
