<svg width="40" height="33" viewBox="0 0 40 33" fill="none" xmlns="http://www.w3.org/2000/svg">
<path d="M10.4075 4.49225C3.38376 2.50044 0.589275 4.99297 0.0651152 6.30337C-0.0205115 6.10359 0.0460846 5.80231 0.0650068 5.5618C0.169 4.23999 1.97126 2.46196 8.17982 0.954168C17.3526 -1.27351 28.36 0.692088 31.1118 3.83705C33.3133 6.35301 27.9232 12.311 24.9529 14.9754C20.3665 9.99592 19.1872 6.98201 10.4075 4.49225Z" fill="url(#paint0_linear_3317_106039)"/>
<path d="M5.15985 22.2116C0.70157 16.1681 -0.128538 9.10257 0.0149279 5.83738C0.0303178 5.48712 0.139256 5.14547 0.356798 4.87053C3.18326 1.2982 9.81777 3.68555 12.9729 5.24212C12.5306 5.30782 12.0263 5.41228 10.6635 11.0732C8.95998 18.1494 11.0566 23.2599 12.367 26.929C14.0705 30.4671 16.0305 31.4064 17.2973 31.7122C15.2006 32.2363 11.0566 30.205 5.15985 22.2116Z" fill="url(#paint1_linear_3317_106039)"/>
<path d="M29.1474 18.2438C26.0976 25.6974 20.0099 30.3325 17.2973 31.7117C12.3289 31.7472 10.843 24.7613 10.4935 21.0771C10.4697 21.0502 10.468 21.0129 10.4833 20.9664C10.4866 21.0029 10.49 21.0398 10.4935 21.0771C10.6674 21.2739 12.0238 20.9147 16.5869 19.577C23.708 17.4893 26.5766 13.5337 29.1474 10.1966C31.1159 7.29009 31.5822 4.82022 30.9254 3.66912C32.4873 5.16666 32.9597 8.92678 29.1474 18.2438Z" fill="url(#paint2_linear_3317_106039)"/>
<defs>
<linearGradient id="paint0_linear_3317_106039" x1="7.10995" y1="-2.03932" x2="24.3515" y2="8.52809" gradientUnits="userSpaceOnUse">
<stop stop-color="#0C98FE"/>
<stop offset="1" stop-color="#0044E3"/>
</linearGradient>
<linearGradient id="paint1_linear_3317_106039" x1="12.9684" y1="5.03982" x2="21.2846" y2="16.7706" gradientUnits="userSpaceOnUse">
<stop stop-color="#0044E3"/>
<stop offset="1" stop-color="#0C98FE"/>
</linearGradient>
<linearGradient id="paint2_linear_3317_106039" x1="10.4474" y1="21.3202" x2="11.9813" y2="7.50543" gradientUnits="userSpaceOnUse">
<stop stop-color="#0044E3"/>
<stop offset="1" stop-color="#0C98FE"/>
</linearGradient>
</defs>
</svg>
